<svg xmlns="http://www.w3.org/2000/svg" width="64px" height="64px" viewBox="0 0 64 64">
<path fill="#e4242b" d="M 26 0 C 22.6875 0 20 2.6875 20 6 L 20 10 C 20 13.3125 22.6875 16 26 16 L 38 16 C 41.3125 16 44 13.3125 44 10 L 44 6 C 44 2.6875 41.3125 0 38 0 Z M 38 4 C 39.105469 4 40 4.894531 40 6 L 40 10 C 40 11.105469 39.105469 12 38 12 L 26 12 C 24.894531 12 24 11.105469 24 10 L 24 6 C 24 4.894531 24.894531 4 26 4 Z M 38 4"/>
<path fill="#1c5494" d="M 16 6 L 12 6 C 7.582031 6 4 9.582031 4 14 L 4 56 C 4 60.417969 7.582031 64 12 64 L 52 64 C 56.417969 64 60 60.417969 60 56 L 60 14 C 60 9.582031 56.417969 6 52 6 L 48 6 L 48 10 C 48 15.523438 43.523438 20 38 20 L 26 20 C 20.476562 20 16 15.523438 16 10 Z M 40 32 C 40 29.789062 41.789062 28 44 28 C 46.210938 28 48 29.789062 48 32 L 48 52 C 48 54.210938 46.210938 56 44 56 C 41.789062 56 40 54.210938 40 52 Z M 16 48 C 16 45.789062 17.789062 44 20 44 C 22.210938 44 24 45.789062 24 48 L 24 52 C 24 54.210938 22.210938 56 20 56 C 17.789062 56 16 54.210938 16 52 Z M 32 36 C 34.210938 36 36 37.789062 36 40 L 36 52 C 36 54.210938 34.210938 56 32 56 C 29.789062 56 28 54.210938 28 52 L 28 40 C 28 37.789062 29.789062 36 32 36 "/>
</svg>
